<?xml version="1.0" encoding="UTF-8" standalone="no" ?>
<!DOCTYPE svg PUBLIC "-//W3C//DTD SVG 1.1//EN" "http://www.w3.org/Graphics/SVG/1.1/DTD/svg11.dtd">
<svg xmlns="http://www.w3.org/2000/svg" xmlns:xlink="http://www.w3.org/1999/xlink" version="1.1" width="500" height="500" viewBox="0 0 500 500" xml:space="preserve">
<desc>Created with Fabric.js 5.3.0</desc>
<defs>
</defs>
<g transform="matrix(6.2884961484 0 0 6.2884961484 250.1104864725 250.1104864725)" id="ef8IbglrWalxSAzn0rBTP"  >
<path style="stroke: rgb(128,191,72); stroke-width: 0; stroke-dasharray: none; stroke-linecap: butt; stroke-dashoffset: 0; stroke-linejoin: miter; stroke-miterlimit: 4; fill: rgb(243,235,230); fill-rule: nonzero; opacity: 1;"  transform=" translate(0, 0)" d="M 0 -39.72257 C 21.92686 -39.72257 39.72257 -21.926859999999998 39.72257 0 C 39.72257 21.92686 21.926859999999998 39.72257 0 39.72257 C -21.92686 39.72257 -39.72257 21.926859999999998 -39.72257 0 C -39.72257 -21.92686 -21.926859999999998 -39.72257 0 -39.72257 z" stroke-linecap="round" />
</g>
<g transform="matrix(0 0.6575764184 -2.0695469498 0 202.3349948095 301.9926615676)" id="Aja0Xr3vW6Y5-8PfUNhIZ"  >
<path style="stroke: rgb(103,222,168); stroke-width: 0; stroke-dasharray: none; stroke-linecap: butt; stroke-dashoffset: 0; stroke-linejoin: miter; stroke-miterlimit: 4; fill: rgb(0,0,0); fill-rule: nonzero; opacity: 1;"  transform=" translate(0, 0)" d="M -46.42857 -31.78248 C -46.42857 -39.87129 -25.79128 -46.42857 -0.3338900000000038 -46.42857 L -0.3338900000000038 -46.42857 L -0.3338900000000038 -46.42857 L -0.3338900000000038 -46.42857 C 25.492309999999996 -46.42857 46.42856999999999 -39.77629 46.42856999999999 -31.570300000000003 L 46.42856999999999 8.198189999999997 L 46.42856999999999 31.405039999999996 L 46.42856999999999 31.405039999999996 C 46.42856999999999 39.70231 25.259439999999994 46.42856999999999 -0.8540100000000095 46.42856999999999 L -0.8540100000000095 46.42856999999999 L -0.8540100000000095 46.42856999999999 L -0.8540100000000095 46.42856999999999 C -26.02415000000001 46.42856999999999 -46.42857000000001 39.94528 -46.42857000000001 31.947739999999996 z" stroke-linecap="round" />
</g>
<g transform="matrix(0.5694774513 0.3287879598 -1.5619679656 2.7054078761 138.067372007 275.4820700117)" id="G6AWANls8ZHF3g9Y4TGCl"  >
<path style="stroke: rgb(103,222,168); stroke-width: 0; stroke-dasharray: none; stroke-linecap: butt; stroke-dashoffset: 0; stroke-linejoin: miter; stroke-miterlimit: 4; fill: rgb(0,0,0); fill-rule: nonzero; opacity: 1;"  transform=" translate(0, 0)" d="M -46.42857 -36.72583 C -46.42857 -42.08451 -25.79128 -46.42857 -0.3338900000000038 -46.42857 L -0.3338900000000038 -46.42857 L -0.3338900000000038 -46.42857 L -0.3338900000000038 -46.42857 C 25.492309999999996 -46.42857 46.42856999999999 -42.02157 46.42856999999999 -36.58526 L 46.42856999999999 8.198190000000004 L 46.42856999999999 36.47578 L 46.42856999999999 36.47578 C 46.42856999999999 41.97256 25.259439999999994 46.42857 -0.8540100000000095 46.42857 L -0.8540100000000095 46.42857 L -0.8540100000000095 46.42857 L -0.8540100000000095 46.42857 C -26.02415000000001 46.42857 -46.42857000000001 42.133520000000004 -46.42857000000001 36.83531 z" stroke-linecap="round" />
</g>
<g transform="matrix(0.5694778832 -0.3287882092 2.1519221541 3.7272385049 334.5418678393 228.4244113202)" id="erJsQiq-P7xIEsdZkbE1_"  >
<path style="stroke: rgb(103,222,168); stroke-width: 0; stroke-dasharray: none; stroke-linecap: butt; stroke-dashoffset: 0; stroke-linejoin: miter; stroke-miterlimit: 4; fill: rgb(0,0,0); fill-rule: nonzero; opacity: 1;"  transform=" translate(0, -0.000005)" d="M -46.42857 -39.38585 C -46.42857 -43.275439999999996 -25.79128 -46.42857 -0.3338900000000038 -46.42857 L -0.3338900000000038 -46.42857 L -0.3338900000000038 -46.42857 L -0.3338900000000038 -46.42857 C 25.492309999999996 -46.42857 46.42856999999999 -43.22976 46.42856999999999 -39.28382 L 46.42856999999999 8.198190000000004 L 46.42856999999999 39.20436000000001 L 46.42856999999999 39.20436000000001 C 46.42856999999999 43.194190000000006 25.259439999999994 46.42858000000001 -0.8540100000000095 46.42858000000001 L -0.8540100000000095 46.42858000000001 L -0.8540100000000095 46.42858000000001 L -0.8540100000000095 46.42858000000001 C -26.02415000000001 46.42858000000001 -46.42857000000001 43.31103000000001 -46.42857000000001 39.46533000000001 z" stroke-linecap="round" />
</g>
</svg>