<?xml version="1.0" encoding="UTF-8" standalone="no" ?>
<!DOCTYPE svg PUBLIC "-//W3C//DTD SVG 1.1//EN" "http://www.w3.org/Graphics/SVG/1.1/DTD/svg11.dtd">
<svg xmlns="http://www.w3.org/2000/svg" xmlns:xlink="http://www.w3.org/1999/xlink" version="1.1" width="500" height="500" viewBox="0 0 500 500" xml:space="preserve">
<desc>Created with Fabric.js 5.3.0</desc>
<defs>
</defs>
<g transform="matrix(0.5244388098 0.302784888 -1.1990962361 2.0768956041 124.2144094734 298.7786725022)" id="G6AWANls8ZHF3g9Y4TGCl"  >
<path style="stroke: rgb(103,222,168); stroke-width: 0; stroke-dasharray: none; stroke-linecap: butt; stroke-dashoffset: 0; stroke-linejoin: miter; stroke-miterlimit: 4; fill: rgb(0,0,0); fill-rule: nonzero; opacity: 1;"  transform=" translate(0, 0)" d="M -46.42857 -34.78916 C -46.42857 -41.21743 -25.79128 -46.42857 -0.3338900000000038 -46.42857 L -0.3338900000000038 -46.42857 L -0.3338900000000038 -46.42857 L -0.3338900000000038 -46.42857 C 25.492309999999996 -46.42857 46.42856999999999 -41.14193 46.42856999999999 -34.62054 L 46.42856999999999 8.198190000000004 L 46.42856999999999 34.48921 L 46.42856999999999 34.48921 C 46.42856999999999 41.08314 25.259439999999994 46.42858 -0.8540100000000095 46.42858 L -0.8540100000000095 46.42858 L -0.8540100000000095 46.42858 L -0.8540100000000095 46.42858 C -26.02415000000001 46.42858 -46.42857000000001 41.276239999999994 -46.42857000000001 34.92050999999999 z" stroke-linecap="round" />
</g>
<g transform="matrix(0.5244392075 -0.3027851177 1.9300227998 3.342897549 321.8496953724 240)" id="erJsQiq-P7xIEsdZkbE1_"  >
<path style="stroke: rgb(103,222,168); stroke-width: 0; stroke-dasharray: none; stroke-linecap: butt; stroke-dashoffset: 0; stroke-linejoin: miter; stroke-miterlimit: 4; fill: rgb(0,0,0); fill-rule: nonzero; opacity: 1;"  transform=" translate(0, 0)" d="M -46.42857 -39.19716 C -46.42857 -43.19096 -25.79128 -46.42856999999999 -0.3338900000000038 -46.42856999999999 L -0.3338900000000038 -46.42856999999999 L -0.3338900000000038 -46.42856999999999 L -0.3338900000000038 -46.42856999999999 C 25.492309999999996 -46.42856999999999 46.42856999999999 -43.14404999999999 46.42856999999999 -39.09239999999999 L 46.42856999999999 8.198190000000011 L 46.42856999999999 39.010810000000006 L 46.42856999999999 39.010810000000006 C 46.42856999999999 43.107530000000004 25.259439999999994 46.428580000000004 -0.8540100000000095 46.428580000000004 L -0.8540100000000095 46.428580000000004 L -0.8540100000000095 46.428580000000004 L -0.8540100000000095 46.428580000000004 C -26.02415000000001 46.428580000000004 -46.42857000000001 43.227500000000006 -46.42857000000001 39.27877 z" stroke-linecap="round" />
</g>
<g transform="matrix(0 0.6055702353 -1.4811142893 0 181.0456518608 304.358835491)" id="Aja0Xr3vW6Y5-8PfUNhIZ"  >
<path style="stroke: rgb(103,222,168); stroke-width: 0; stroke-dasharray: none; stroke-linecap: butt; stroke-dashoffset: 0; stroke-linejoin: miter; stroke-miterlimit: 4; fill: rgb(0,0,0); fill-rule: nonzero; opacity: 1;"  transform=" translate(0, 0)" d="M -46.42857 -27.58224 C -46.42857 -37.99078 -25.79128 -46.42856999999999 -0.3338900000000038 -46.42856999999999 L -0.3338900000000038 -46.42856999999999 L -0.3338900000000038 -46.42856999999999 L -0.3338900000000038 -46.42856999999999 C 25.492309999999996 -46.42856999999999 46.42856999999999 -37.868539999999996 46.42856999999999 -27.309209999999993 L 46.42856999999999 8.198190000000004 L 46.42856999999999 27.096560000000004 L 46.42856999999999 27.096560000000004 C 46.42856999999999 37.773340000000005 25.259439999999994 46.428580000000004 -0.8540100000000095 46.428580000000004 L -0.8540100000000095 46.428580000000004 L -0.8540100000000095 46.428580000000004 L -0.8540100000000095 46.428580000000004 C -26.02415000000001 46.428580000000004 -46.42857000000001 38.086000000000006 -46.42857000000001 27.794910000000005 z" stroke-linecap="round" />
</g>
</svg>